<svg xmlns="http://www.w3.org/2000/svg" width="512" height="512" viewBox="0 0 135.456 135.456">
	<path style="fill:#fff" d="M27.091 0h81.274a27.091 27.091 45 0 1 27.091 27.091v81.274a27.091 27.091 135 0 1-27.091 27.091H27.09A27.091 27.091 45 0 1 0 108.365V27.09A27.091 27.091 135 0 1 27.091 0z" />
	<path style="fill:#d479c6" d="M51.084 114.335a142.56 142.56 0 0 0-2.952-6.792 19.92 19.92 0 0 0-2.592-4.152c-.624-.624-.864-.744-2.352-1.104-.408-.12-.96-.24-1.2-.336l-.984-.288-1.2-.336c-.432-.12-1.032-.24-1.416-.408-.336-.096-.792-.24-1.008-.312-2.64-.768-3.12-.96-3.36-1.368a13.152 13.152 0 0 1-1.2-2.64 1.92 1.92 0 0 1 .528-1.632l.816-.792c.624-.672 1.584-.96 4.392-1.416l1.224-.24a15.384 15.384 0 0 1 4.272-.792h.96l.552-.816c1.344-1.92 4.128-6 4.56-6.672.648-1.008-.672.144-2.832 2.52a5.832 5.832 0 0 1-2.808 1.728l-.6.192-1.08-1.056c-1.296-1.296-2.16-2.52-1.968-2.832a14.4 14.4 0 0 1 2.208-2.208 12.72 12.72 0 0 0 2.88-3.336c2.16-2.952 1.968-2.76 2.856-2.88l.768-.096 2.712 1.32a306.96 306.96 0 0 0 4.896 2.328 16.464 16.464 0 0 1 1.8 4.32l.192.984-.792 4.344c-.456 2.4-.816 4.584-.816 4.872 0 1.128 1.488 4.248 4.44 9.36l1.92 3.264c.168.24.144.336-.264.648a9.24 9.24 0 0 1-2.304 1.56 91.44 91.44 0 0 1-5.952 3.168 273.12 273.12 0 0 0-4.176 2.16l-.12-.312zm31.92-.888l-4.632-2.304a41.52 41.52 0 0 1-4.512-2.4l-.432-.24a5.76 5.76 0 0 1-1.296-.96c-.168-.216-.192-.36-.072-.504l1.632-2.88a72.48 72.48 0 0 0 4.08-8.064c.6-1.512.6-1.392-.384-6.36a26.736 26.736 0 0 1-.816-5.16 17.376 17.376 0 0 1 1.128-3.6l.48-1.032 3.816-1.92c3.072-1.56 3.936-1.92 4.344-1.92.96.024 1.296.24 2.16 1.44 2.232 2.928 2.928 3.792 3.48 4.248l.96.768c.6.48 1.944 1.872 1.944 1.992a13.056 13.056 0 0 1-2.688 3.36c-.48.432-.552.48-.912.312l-.624-.24c-1.2-.48-1.536-.72-3.072-2.28-1.68-1.68-2.472-2.4-2.328-2.016.048.12.648.984 1.368 1.992l1.584 2.208.576.816 1.008 1.44.72 1.056 1.632.216c1.56.192 2.4.336 4.512.792.48.12 1.512.288 2.208.408a13.44 13.44 0 0 1 1.848.48c.672.288 2.112 1.68 2.232 2.16.144.576-.168 1.656-.792 2.832l-.6 1.104-2.064.648a141.6 141.6 0 0 1-5.04 1.56l-1.968.576-.912.24c-1.44.336-3.288 3.528-5.76 9.816-.48 1.2-.912 2.184-.96 2.232a12.864 12.864 0 0 1-1.848-.816zm-62.712-9.84a5.088 5.088 0 0 1-3.36-3.456c0-.072.192-.336.432-.576a600.792 600.792 0 0 0 8.568-9.384 4.488 4.488 0 0 0-.696-.576c-1.152-.792-1.2-.84-.912-1.68.12-.36.552-1.416.96-2.304l.72-1.608.72.072c.72.072 2.064.672 2.976 1.344l.408.336.288-.288.264-.288-.576-.528a94.848 94.848 0 0 0-1.512-1.368 4.824 4.824 0 0 1-1.344-1.632c-.456-.96-.48-1.44-.048-2.04l.672-1.032a2.712 2.712 0 0 1 .552-.72 8.472 8.472 0 0 0 .864-.816c.48-.528.792-.72 1.152-.768.792-.12 1.32 0 1.68.528l1.608 2.016c1.296 1.56 1.296 1.584 1.56 1.32.288-.288.48 0-1.704-2.736-1.632-2.016-1.92-2.592-1.68-3.144a16.44 16.44 0 0 1 3.816-3.528c.12 0 .696.216 1.272.528l1.056.504.84 1.488c1.104 1.968 1.008 1.872 1.44 1.44l.384-.36-.792-1.488-.792-1.464.264-.432a4.32 4.32 0 0 1 1.608-1.44c1.152-.72 2.16-1.152 2.424-1.032a2.784 2.784 0 0 0 .672.192c.24.024.6.24.816.384l.408.288.408-.48 3.168-3.432 1.56-1.704 1.584-1.704 1.56-1.68a628.032 628.032 0 0 1 4.872-5.28l3.264-3.504c3.24-3.504 3.168-3.408 2.976-3.6-.072-.12-.528-.576-.96-1.08a109.032 109.032 0 0 0-1.248-1.368L61.14 44.04l-1.512-1.68-.72-.816c-.624-.72-2.016-2.28-2.352-2.616l-.816-.936-1.392-1.536a130.68 130.68 0 0 1-3.672-4.104 382.248 382.248 0 0 0-3.672-4.056c-.48-.528-.552-.672-.552-1.2 0-.696-.072-.72-.456-.432a.792.792 0 0 1-.384.192 9.528 9.528 0 0 1-2.28-2.304c-.816-1.368-.84-2.472 0-3.264.336-.336.48-.384 1.2-.384.624 0 .96.12 1.416.384.72.408 2.208 1.944 2.448 2.544.168.384.144.456-.096.792l-.288.384h.6c.576 0 .672.072 1.152.576.888.96 3.12 3.36 3.528 3.84.24.192.912.96 1.536 1.608l1.56 1.704 1.608 1.752 1.584 1.68a500.184 500.184 0 0 1 4.8 5.184l1.584 1.752 1.08 1.152.72.72.264-.312 3.24-3.456 3.384-3.672A385.776 385.776 0 0 1 78.804 33a294.72 294.72 0 0 0 4.08-4.392 297.6 297.6 0 0 0 3.12-3.384c.168-.192.408-.24.84-.24h.624l-.288-.384c-.264-.384-.264-.432-.096-.816a8.304 8.304 0 0 1 2.4-2.448c1.68-.96 3.12-.432 3.288 1.2.12 1.08-.888 2.76-2.328 3.912-.48.384-.552.384-.888.216l-.432-.24c-.072 0-.096.24-.096.6 0 .48-.072.72-.312.96l-1.512 1.68a220.8 220.8 0 0 1-1.392 1.536l-.96 1.08a72.24 72.24 0 0 1-1.056 1.152l-1.176 1.32a88.896 88.896 0 0 1-2.472 2.736 38.4 38.4 0 0 1-1.752 1.968l-2.64 2.928-1.872 2.088-2.184 2.4a5.496 5.496 0 0 0-.96 1.2c0 .096 1.08 1.32 3.312 3.696l1.776 1.92 1.8 1.944a2775.96 2775.96 0 0 1 7.944 8.592l1.56 1.704 2.04 2.16.84.936.288-.312c.312-.312.72-.48 1.464-.648.432-.12.624-.072 1.584.432a14.592 14.592 0 0 1 1.464.792c.6.432 1.392 1.296 1.392 1.512a10.992 10.992 0 0 1-.792 1.728l-.792 1.536.336.36c.168.192.36.336.432.24l1.008-1.752.912-1.656 1.152-.576 1.128-.576.48.24a18.672 18.672 0 0 1 3.504 3.36c.096.456-.12 1.08-.6 1.752a83.28 83.28 0 0 1-2.88 3.648c-.432.48-.432.48-.096.792.168.144.312.192.36.12.48-.72 3.456-4.368 3.624-4.416a4.728 4.728 0 0 1 .792-.072c.504 0 .624.072 1.32.744a7.704 7.704 0 0 1 1.848 2.04c.504.768.72 1.2.72 1.488a4.68 4.68 0 0 1-1.152 2.352l-1.68 1.536c-1.2 1.104-1.248 1.176-1.056 1.392.24.24.384.312.6.12 1.44-1.152 3.288-2.016 4.032-1.848a16.536 16.536 0 0 1 1.872 3.72c.336.864.24 1.128-.792 1.8-1.488.96-1.44.864-.6 1.752l1.92 2.088 1.608 1.752 1.584 1.68 2.712 2.952c.456.48.816.96.816 1.032 0 .336-.768 1.704-1.248 2.184a5.352 5.352 0 0 1-1.2.84 20.28 20.28 0 0 0-1.008.48c-.192.144-.288.096-.48-.168l-.936-1.056a132.936 132.936 0 0 1-2.592-2.88 278.256 278.256 0 0 1-2.592-2.856l-.696-.792a343.728 343.728 0 0 1-2.784-3.12s-.192.024-.36.12c-.288.144-.408.144-.888-.072-1.488-.672-3.24-1.92-3.24-2.304 0-.072.216-.408.48-.744a2.52 2.52 0 0 0 .456-.816c0-.192-.408-.624-.6-.624a7.944 7.944 0 0 0-1.152.96c-1.152 1.128-1.248 1.152-2.28.456l-.768-.48c-.792-.336-1.44-.888-1.704-1.44-.312-.744-.24-.888.552-1.848l.96-1.104.48-.6c.168-.192.144-.312-.24-.72l-.456-.48-.528.408-.528.432-.672-.624a13.488 13.488 0 0 1-1.44-1.704l-.792-1.08.264-.528c.336-.648.336-.648-.12-1.2l-.384-.432-.384.384-.384.36-.432-.336a13.512 13.512 0 0 1-2.112-2.064c-1.2-1.44-1.2-1.416-.888-2.112l.24-.576-.288-.36a131.04 131.04 0 0 0-2.328-2.64 296.64 296.64 0 0 1-3.744-4.176 81.288 81.288 0 0 1-1.944-2.16 113.4 113.4 0 0 0-1.608-1.776l-1.032-1.152-.84-.912a37.68 37.68 0 0 1-1.104-1.248l-.984-1.104-2.472-2.76-1.2-1.296-2.496-2.784-.264-.336-.624.672-.864.96-3.36 3.744-1.056 1.176-.984 1.104-1.896 2.088-2.808 3.12-2.472 2.76-2.4 2.688c-.048 0-.312.336-.6.648a101.52 101.52 0 0 1-2.928 3.264l-.504.576.288.672.312.696-.768 1.008a13.152 13.152 0 0 1-2.352 2.568l-.48.36-.48-.432-.528-.432-.384.456-.384.432.36.648c.192.384.312.768.264.888a13.464 13.464 0 0 1-2.448 3.12c-.24.216-.576.096-1.2-.504l-.408-.36-.408.48c-.456.528-.456.552.36 1.44a20.64 20.64 0 0 1 1.944 2.352 4.248 4.248 0 0 1-.24.768c-.24.528-.408.72-1.224 1.2a25.152 25.152 0 0 1-1.68.96l-.72.408-.336-.336a130.296 130.296 0 0 0-1.968-1.8l-.36-.336-.312.36-.312.384.48.6a13.176 13.176 0 0 1 .72.96c.24.36.24.384 0 .648-.624.72-1.08 1.008-2.952 2.016l-.624.336-.552-.384-.552-.36-.528.6a1024.104 1024.104 0 0 0-4.032 4.488l-1.008 1.104-1.032 1.152-1.176 1.32c-1.872 2.088-1.848 2.064-2.28 1.92z" />
</svg>