<svg xmlns="http://www.w3.org/2000/svg" width="16" height="16" viewBox="0 0 4.233 4.233">
	<path style="fill:#d479c6" d="M1.423 4.059a5.94 5.94 0 0 0-.123-.283.83.83 0 0 0-.108-.173c-.026-.026-.036-.031-.098-.046-.017-.005-.04-.01-.05-.014l-.041-.012-.05-.014C.935 3.512.91 3.507.894 3.5.88 3.496.861 3.49.852 3.487c-.11-.032-.13-.04-.14-.057a.548.548 0 0 1-.05-.11.08.08 0 0 1 .022-.068l.034-.033c.026-.028.066-.04.183-.059l.051-.01a.641.641 0 0 1 .178-.033h.04l.023-.034c.056-.08.172-.25.19-.278.027-.042-.028.006-.118.105a.243.243 0 0 1-.117.072l-.025.008-.045-.044c-.054-.054-.09-.105-.082-.118a.6.6 0 0 1 .092-.092.53.53 0 0 0 .12-.139c.09-.123.082-.115.119-.12l.032-.004.113.055a12.79 12.79 0 0 0 .204.097.686.686 0 0 1 .075.18l.008.041-.033.181c-.019.1-.034.191-.034.203 0 .047.062.177.185.39l.08.136c.007.01.006.014-.011.027a.385.385 0 0 1-.096.065 3.81 3.81 0 0 1-.248.132 11.38 11.38 0 0 0-.174.09l-.005-.013zm1.33-.037l-.193-.096a1.73 1.73 0 0 1-.188-.1l-.018-.01a.24.24 0 0 1-.054-.04c-.007-.009-.008-.015-.003-.021l.068-.12a3.02 3.02 0 0 0 .17-.336c.025-.063.025-.058-.016-.265a1.114 1.114 0 0 1-.034-.215.724.724 0 0 1 .047-.15l.02-.043.159-.08c.128-.065.164-.08.181-.08.04.001.054.01.09.06.093.122.122.158.145.177l.04.032c.025.02.081.078.081.083a.544.544 0 0 1-.112.14c-.02.018-.023.02-.038.013l-.026-.01c-.05-.02-.064-.03-.128-.095-.07-.07-.103-.1-.097-.084.002.005.027.041.057.083l.066.092.024.034.042.06.03.044.068.009c.065.008.1.014.188.033.02.005.063.012.092.017a.56.56 0 0 1 .077.02c.028.012.088.07.093.09.006.024-.007.069-.033.118l-.025.046-.086.027a5.9 5.9 0 0 1-.21.065l-.082.024-.038.01c-.06.014-.137.147-.24.409-.02.05-.038.091-.04.093a.536.536 0 0 1-.077-.034zM.14 3.612A.212.212 0 0 1 0 3.468c0-.003.008-.014.018-.024a25.033 25.033 0 0 0 .357-.391.187.187 0 0 0-.029-.024c-.048-.033-.05-.035-.038-.07.005-.015.023-.059.04-.096l.03-.067.03.003c.03.003.086.028.124.056l.017.014.012-.012.011-.012-.024-.022a3.952 3.952 0 0 0-.063-.057.201.201 0 0 1-.056-.068c-.019-.04-.02-.06-.002-.085l.028-.043a.113.113 0 0 1 .023-.03.353.353 0 0 0 .036-.034c.02-.022.033-.03.048-.032.033-.005.055 0 .07.022l.067.084c.054.065.054.066.065.055.012-.012.02 0-.071-.114-.068-.084-.08-.108-.07-.131a.685.685 0 0 1 .159-.147c.005 0 .029.009.053.022l.044.021.035.062c.046.082.042.078.06.06l.016-.015-.033-.062-.033-.061.011-.018a.18.18 0 0 1 .067-.06c.048-.03.09-.048.101-.043a.116.116 0 0 0 .028.008c.01.001.025.01.034.016l.017.012.017-.02.132-.143.065-.071.066-.071.065-.07a26.168 26.168 0 0 1 .203-.22l.136-.146c.135-.146.132-.142.124-.15-.003-.005-.022-.024-.04-.045a4.543 4.543 0 0 0-.052-.057l-.056-.062-.063-.07-.03-.034c-.026-.03-.084-.095-.098-.109L1.617.878 1.559.814a5.445 5.445 0 0 1-.153-.171 15.927 15.927 0 0 0-.153-.169C1.233.452 1.23.446 1.23.424c0-.029-.003-.03-.019-.018a.033.033 0 0 1-.016.008A.397.397 0 0 1 1.1.318c-.034-.057-.035-.103 0-.136.014-.014.02-.016.05-.016.026 0 .04.005.059.016.03.017.092.081.102.106.007.016.006.019-.004.033l-.012.016h.025c.024 0 .028.003.048.024.037.04.13.14.147.16.01.008.038.04.064.067l.065.071.067.073.066.07a20.841 20.841 0 0 1 .2.216l.066.073.045.048.03.03.011-.013.135-.144.141-.153A16.074 16.074 0 0 1 2.578.67a12.28 12.28 0 0 0 .17-.183 12.4 12.4 0 0 0 .13-.141c.007-.008.017-.01.035-.01h.026L2.927.32C2.916.304 2.916.302 2.923.286a.346.346 0 0 1 .1-.102c.07-.04.13-.018.137.05.005.045-.037.115-.097.163-.02.016-.023.016-.037.009l-.018-.01c-.003 0-.004.01-.004.025 0 .02-.003.03-.013.04l-.063.07a9.2 9.2 0 0 1-.058.064L2.83.64a3.01 3.01 0 0 1-.044.048l-.049.055a3.704 3.704 0 0 1-.103.114 1.6 1.6 0 0 1-.073.082l-.11.122-.078.087-.091.1a.229.229 0 0 0-.04.05c0 .004.045.055.138.154l.074.08.075.081a115.665 115.665 0 0 1 .331.358l.065.071.085.09.035.039.012-.013c.013-.013.03-.02.061-.027.018-.005.026-.003.066.018a.608.608 0 0 1 .061.033c.025.018.058.054.058.063a.458.458 0 0 1-.033.072l-.033.064.014.015c.007.008.015.014.018.01l.042-.073.038-.069.048-.024.047-.024.02.01a.778.778 0 0 1 .146.14c.004.019-.005.045-.025.073a3.47 3.47 0 0 1-.12.152c-.018.02-.018.02-.004.033.007.006.013.008.015.005.02-.03.144-.182.151-.184a.197.197 0 0 1 .033-.003c.021 0 .026.003.055.031a.321.321 0 0 1 .077.085c.021.032.03.05.03.062a.195.195 0 0 1-.048.098l-.07.064c-.05.046-.052.049-.044.058.01.01.016.013.025.005.06-.048.137-.084.168-.077a.689.689 0 0 1 .078.155c.014.036.01.047-.033.075-.062.04-.06.036-.025.073l.08.087.067.073.066.07.113.123c.019.02.034.04.034.043 0 .014-.032.071-.052.091a.223.223 0 0 1-.05.035.845.845 0 0 0-.042.02c-.008.006-.012.004-.02-.007l-.039-.044a5.539 5.539 0 0 1-.108-.12 11.594 11.594 0 0 1-.108-.119l-.029-.033a14.322 14.322 0 0 1-.116-.13s-.008.001-.015.005c-.012.006-.017.006-.037-.003-.062-.028-.135-.08-.135-.096 0-.003.009-.017.02-.031a.105.105 0 0 0 .019-.034c0-.008-.017-.026-.025-.026a.331.331 0 0 0-.048.04c-.048.047-.052.048-.095.019l-.032-.02c-.033-.014-.06-.037-.071-.06-.013-.031-.01-.037.023-.077l.04-.046.02-.025c.007-.008.006-.013-.01-.03l-.019-.02-.022.017-.022.018-.028-.026a.562.562 0 0 1-.06-.071l-.033-.045.011-.022c.014-.027.014-.027-.005-.05l-.016-.018-.016.016-.016.015-.018-.014a.563.563 0 0 1-.088-.086c-.05-.06-.05-.059-.037-.088l.01-.024-.012-.015a5.46 5.46 0 0 0-.097-.11 12.36 12.36 0 0 1-.156-.174 3.387 3.387 0 0 1-.081-.09 4.725 4.725 0 0 0-.067-.074l-.043-.048-.035-.038a1.57 1.57 0 0 1-.046-.052l-.041-.046-.103-.115-.05-.054-.104-.116-.011-.014-.026.028-.036.04-.14.156-.044.049-.041.046-.079.087-.117.13-.103.115-.1.112c-.002 0-.013.014-.025.027a4.23 4.23 0 0 1-.122.136l-.021.024.012.028.013.029-.032.042a.548.548 0 0 1-.098.107l-.02.015-.02-.018-.022-.018-.016.019-.016.018.015.027c.008.016.013.032.011.037a.561.561 0 0 1-.102.13c-.01.009-.024.004-.05-.021l-.017-.015-.017.02c-.019.022-.019.023.015.06a.86.86 0 0 1 .081.098.177.177 0 0 1-.01.032c-.01.022-.017.03-.051.05a1.048 1.048 0 0 1-.07.04l-.03.017-.014-.014a5.429 5.429 0 0 0-.082-.075l-.015-.014-.013.015-.013.016.02.025a.549.549 0 0 1 .03.04c.01.015.01.016 0 .027-.026.03-.045.042-.123.084l-.026.014-.023-.016-.023-.015-.022.025a42.671 42.671 0 0 0-.168.187l-.042.046-.043.048-.049.055c-.078.087-.077.086-.095.08z" />
</svg>