<?xml version="1.0" encoding="UTF-8"?> <svg xmlns="http://www.w3.org/2000/svg" clip-rule="evenodd" fill-rule="evenodd" stroke-linejoin="round" stroke-miterlimit="2" viewBox="0 0 100 100"><title>hourglass</title><path d="m85.8 52.2c0 9.4-3.7 18-9.7 24.3l-21.1-24.3 21.1-24.3c6 6.3 9.7 14.9 9.7 24.3m-35.3-35.3c8.9 0 16.9 3.3 23.1 8.6h-4.4-37.4-4.4c6.1-5.4 14.2-8.6 23.1-8.6m-25.7 11 21.2 24.3-21.2 24.3c-6-6.3-9.7-14.9-9.7-24.3s3.7-18 9.7-24.3m25.7 19.1-13.1-15.1h26.2zm0 10.4 13.1 15.1h-26.2zm0 30.1c-8.8 0-16.9-3.3-23.1-8.6h46.3c-6.3 5.4-14.4 8.6-23.2 8.6m41.7-35.3c0-23.1-18.7-41.8-41.8-41.8s-41.7 18.7-41.7 41.8 18.7 41.8 41.8 41.8c23 0 41.7-18.7 41.7-41.8"></path></svg> 