<?xml version="1.0" encoding="UTF-8" standalone="no"?>
<!DOCTYPE svg PUBLIC "-//W3C//DTD SVG 1.1//EN" "http://www.w3.org/Graphics/SVG/1.1/DTD/svg11.dtd">
<svg width="100%" height="100%" viewBox="0 0 170 60" version="1.1" xmlns="http://www.w3.org/2000/svg" xmlns:xlink="http://www.w3.org/1999/xlink" xml:space="preserve" xmlns:serif="http://www.serif.com/" style="fill-rule:evenodd;clip-rule:evenodd;stroke-linejoin:round;stroke-miterlimit:2;">
    <g transform="matrix(0.661765,0,0,0.666667,-5.29412,-4.66667)">
        <path d="M174.4,69.2C174.4,69.3 174.4,70.6 174.5,71.9C174.6,73.3 175.9,73.2 175.9,73.2C175.9,73.2 177.2,73.3 177.3,71.9C177.4,70.6 177.4,69.3 177.4,69.2C177.4,69.1 177.4,67.8 177.3,66.5C177.2,65.1 175.9,65.2 175.9,65.2C175.9,65.2 174.6,65.1 174.5,66.5C174.4,67.8 174.4,69.1 174.4,69.2M162.4,66.9C162.4,66.9 162.4,64.4 160.7,64.4C159,64.4 158.9,66.5 158.9,66.9C158.9,67.3 159.7,67.3 159.7,67.3L161.6,67.3C162.5,67.3 162.4,66.9 162.4,66.9M194.1,66.9C194.1,66.9 194.1,64.4 192.4,64.4C190.7,64.4 190.6,66.5 190.6,66.9C190.6,67.3 191.4,67.3 191.4,67.3L193.3,67.3C194.2,67.3 194.1,66.9 194.1,66.9M232.8,69.2C232.8,69.1 232.8,67.8 232.7,66.5C232.6,65.1 231.3,65.2 231.3,65.2C231.3,65.2 230,65.1 229.9,66.5C229.8,67.8 229.8,69.1 229.8,69.2C229.8,69.3 229.8,70.7 229.9,72C230,72.8 230.4,73.1 230.8,73.2C231.1,73.3 231.3,73.3 231.3,73.3C231.3,73.3 231.5,73.3 231.7,73.2C232.1,73.1 232.7,72.8 232.7,71.9C232.8,70.7 232.8,69.3 232.8,69.2M253.5,64.5L253.5,78.2C253.5,78.2 253.5,78.8 252.6,78.8L250.8,78.8L249.3,78.8C248.3,78.8 248.4,78.2 248.4,78.2L248.4,66.5C248.4,66.5 248.5,65.2 247.5,65.2C246.3,65.2 245.9,66.1 245.9,66.5L245.9,78.3C245.9,78.3 245.9,78.9 245,78.9L243.2,78.9L241.4,78.9C240.4,78.9 240.5,78.3 240.5,78.3L240.5,64.5L240.5,60.3C240.5,59.8 241.2,59.8 241.2,59.8L245.2,59.8C245.2,59.8 245.9,59.7 245.9,60.3L245.9,61.7C246.3,61.7 246.7,61.5 246.8,61.4C247.1,61.1 248.4,59.3 250.2,59.3C253.9,59.4 253.5,64.5 253.5,64.5M238.6,69.4C238.6,78.9 232.8,79.1 231.8,79.1L230.8,79.1C229.8,79.1 224,78.2 224,69.4C224,59.2 230.5,59.4 231.1,59.4L231.5,59.4C232.2,59.4 238.6,59.2 238.6,69.4M222.6,54.6C222.6,56.4 221.1,57.8 219.3,57.8C217.5,57.8 216,56.4 216,54.6C216,52.8 217.5,51.4 219.3,51.4C221.1,51.4 222.6,52.8 222.6,54.6M216.6,60.3C216.6,59.8 217.3,59.8 217.3,59.8L221.3,59.8C221.3,59.8 222,59.7 222,60.3L222,78.2C222,78.2 222,78.8 221.1,78.8L219.3,78.8L217.5,78.8C216.5,78.8 216.6,78.2 216.6,78.2L216.6,64.5L216.6,60.3ZM199.2,70.8C199,71.4 198.1,71.4 198.1,71.4L190.6,71.4C190.6,72.9 190.7,74.6 192.4,74.6C193.6,74.6 193.9,73.8 194,73.4C194.1,72.9 194.8,73 194.8,73L198,73C198.7,73 198.7,73.5 198.7,73.5C198.7,73.5 199.1,79.4 192.2,79.4C185.3,79.4 185,70.9 185,70.9C185,70.9 183.6,59.6 192.2,59.6C200.7,59.5 199.4,70.1 199.2,70.8M167.4,70.8C167.2,71.4 166.3,71.4 166.3,71.4L158.8,71.4C158.8,72.9 158.9,74.6 160.6,74.6C161.8,74.6 162.1,73.8 162.2,73.4C162.3,72.9 163,73 163,73L166.2,73C166.9,73 166.9,73.5 166.9,73.5C166.9,73.5 167.3,79.4 160.4,79.4C153.5,79.4 153.2,70.9 153.2,70.9C153.2,70.9 151.8,59.6 160.4,59.6C168.9,59.5 167.6,70.1 167.4,70.8M152.1,65C152.1,65 152.1,65.5 151.7,65.5C151.4,65.5 147.5,65.2 147.5,68.1L147.5,78.3C147.5,78.3 147.5,78.9 146.6,78.9L144.8,78.9L143,78.9C142,78.9 142.1,78.3 142.1,78.3L142.1,65.1L142.1,64.6L142.1,60.4C142.1,59.9 142.8,59.9 142.8,59.9L146.8,59.9C146.8,59.9 147.5,59.8 147.5,60.4L147.5,61.8C147.7,61.8 148.2,61.7 148.6,61.2C149.2,60.6 150.2,59.4 151.7,59.4C152,59.4 152.1,59.6 152.1,59.9L152.1,65ZM259.6,84.1L259.6,42.8L214,47.7L214,78.2C214,78.2 214,78.8 213.1,78.8L211.3,78.8L209.5,78.8C208.5,78.8 208.6,78.2 208.6,78.2L208.6,64.5L208.6,48.3L206.7,48.5L206.7,78.2C206.7,78.2 206.7,78.8 205.8,78.8L204,78.8L202,78.8C201,78.8 201.1,78.2 201.1,78.2L201.1,64.5L201.1,49.1L174.5,52L174.5,61.8C174.7,61.8 175.2,61.7 175.6,61.3C176.2,60.6 177.4,59.5 178.7,59.5C180,59.5 183.5,60.5 183.5,68.7C183.5,76.9 180.2,79.3 178.7,79.3C177.9,79.3 177,79.3 176,78.5C174.9,77.5 174.9,77.4 174.7,77.4C174.6,77.4 174.5,77.5 174.5,77.6L174.5,78.4C174.5,78.4 174.5,79 173.6,79L171.8,79L170,79C169,79 169.1,78.4 169.1,78.4L169.1,64.5L169.1,52.6L108.5,59.2L108.5,84.1L259.6,84.1Z" style="fill-rule:nonzero;"/>
        <path d="M218.2,32.4L218.2,43.1L220.6,42.8L220.6,32.4C220.6,32.4 220.7,31.1 219.7,31.1C218.6,31.2 218.2,32 218.2,32.4M202.5,35.1C202.5,35.2 202.5,36.6 202.6,37.9C202.7,38.7 203.1,39 203.5,39.1C203.8,39.2 204,39.2 204,39.2C204,39.2 204.2,39.2 204.4,39.1C204.8,39 205.4,38.7 205.4,37.8C205.5,36.5 205.5,35 205.5,35C205.5,35 205.5,33.6 205.4,32.3C205.3,30.9 204,31 204,31C204,31 202.7,30.9 202.6,32.3C202.4,33.7 202.5,35 202.5,35.1M112.6,32.9C112.6,32.9 112.6,30.4 110.9,30.4C109.2,30.4 109.1,32.5 109.1,32.9C109.1,33.3 109.9,33.3 109.9,33.3L111.8,33.3C112.7,33.3 112.6,32.9 112.6,32.9M195.5,20.6C195.5,22.4 194,23.8 192.2,23.8C190.4,23.8 188.9,22.4 188.9,20.6C188.9,18.8 190.4,17.4 192.2,17.4C194.1,17.4 195.5,18.8 195.5,20.6M188.2,29.9C188.2,29.9 188.2,30.5 187.6,30.5L186.4,30.5L186.4,44.2C186.4,44.2 186.4,44.8 185.5,44.8L183.7,44.8L181.9,44.8C180.9,44.8 181,44.2 181,44.2L181,30.5L179.8,30.5C179.2,30.5 179.2,29.9 179.2,29.9L179.2,26.4C179.2,25.8 179.7,25.8 179.7,25.8L180.9,25.8L180.9,21.1C180.9,20.6 181.6,20.6 181.6,20.6L185.6,20.6C185.6,20.6 186.3,20.5 186.3,21.1L186.3,25.8L187.5,25.8C187.5,25.8 188,25.8 188,26.4L188,29.9L188.2,29.9ZM177.5,43C177.5,43 177.5,43.4 177.3,43.8C176.7,44.9 174.6,45 174.1,45C173.1,45 167.3,45.4 167.3,35.2C167.3,25 173.8,25.2 174.4,25.2C174.9,25.2 176.1,25.4 176.6,25.9C176.8,26 177.1,26.3 177.3,26.7C177.5,27.1 177.5,27.5 177.5,27.5L177.5,30.6C177.5,31.2 177.1,31 177.1,31C177.1,31 176.4,30.6 175.9,30.6C173.5,30.6 173.5,35 173.5,35.2C173.5,35.4 173.5,39.8 175.9,39.8C176.4,39.8 177.1,39.4 177.1,39.4C177.1,39.4 177.5,39.2 177.5,39.8L177.5,43ZM166,30.5L166,44.2C166,44.2 166,44.8 165.1,44.8L163.3,44.8L161.8,44.8C160.8,44.8 160.9,44.2 160.9,44.2L160.9,32.4C160.9,32.4 161,31.1 160,31.1C158.8,31.1 158.4,32 158.4,32.4L158.4,44.2C158.4,44.2 158.4,44.8 157.5,44.8L155.7,44.8L153.9,44.8C152.9,44.8 153,44.2 153,44.2L153,30.5L153,26.3C153,25.8 153.7,25.8 153.7,25.8L157.7,25.8C157.7,25.8 158.4,25.7 158.4,26.3L158.4,27.7C158.8,27.7 159.2,27.5 159.3,27.4C159.6,27.1 160.9,25.3 162.7,25.3C166.4,25.4 166,30.5 166,30.5M151.5,20.6C151.5,22.4 150,23.8 148.2,23.8C146.4,23.8 144.9,22.4 144.9,20.6C144.9,18.8 146.4,17.4 148.2,17.4C150,17.4 151.5,18.8 151.5,20.6M143.4,29.9C143.4,29.9 143.4,30.5 142.8,30.5L141.6,30.5L141.6,44.2C141.6,44.2 141.6,44.8 140.7,44.8L138.9,44.8L137.1,44.8C136.1,44.8 136.2,44.2 136.2,44.2L136.2,30.5L135,30.5C134.4,30.5 134.4,29.9 134.4,29.9L134.4,26.4C134.4,25.8 134.9,25.8 134.9,25.8L136.1,25.8L136.1,21.1C136.1,20.6 136.8,20.6 136.8,20.6L140.8,20.6C140.8,20.6 141.5,20.5 141.5,21.1L141.5,25.8L142.7,25.8C142.7,25.8 143.2,25.8 143.2,26.4L143.2,29.9L143.4,29.9ZM133.3,44.8L128.4,44.8C128.4,44.8 127.9,44.8 127.6,44.3C127.3,43.8 125.9,40.6 125.9,40.6C125.9,40.6 125.8,40.3 125.5,40.3C125.2,40.3 125.1,40.6 125.1,40.6C125.1,40.6 123.6,43.8 123.4,44.3C123.1,44.8 122.6,44.8 122.6,44.8L117.7,44.8C117.2,44.8 117.7,43.9 117.7,43.9C117.7,43.9 122.5,35.9 122.7,35.5C122.9,35.1 122.7,34.7 122.7,34.7C122.7,34.7 118.4,27 118,26.3C117.6,25.6 118.7,25.7 118.7,25.7L123.1,25.7C123.9,25.7 124.1,26.2 124.1,26.2C124.1,26.2 125.2,28.8 125.4,29.2C125.6,29.6 125.7,29.6 125.7,29.6C125.7,29.6 125.8,29.7 126,29.2C126.2,28.8 127.3,26.2 127.3,26.2C127.3,26.2 127.5,25.7 128.3,25.7L132.7,25.7C132.7,25.7 133.7,25.6 133.4,26.3C133,27 128.7,34.7 128.7,34.7C128.7,34.7 128.5,35.1 128.7,35.5C128.9,35.9 133.7,43.9 133.7,43.9C133.7,43.9 133.8,44.8 133.3,44.8M117.6,36.8C117.4,37.4 116.5,37.4 116.5,37.4L109,37.4C109,38.9 109.1,40.6 110.8,40.6C112,40.6 112.3,39.8 112.4,39.4C112.5,38.9 113.2,39 113.2,39L116.4,39C117.1,39 117.1,39.5 117.1,39.5C117.1,39.5 117.5,45.4 110.6,45.4C103.7,45.4 103.4,36.9 103.4,36.9C103.4,36.9 102,25.6 110.6,25.6C119.1,25.4 117.8,36.1 117.6,36.8M145.4,26.3C145.4,25.8 146.1,25.8 146.1,25.8L150.1,25.8C150.1,25.8 150.8,25.7 150.8,26.3L150.8,44.2C150.8,44.2 150.8,44.8 149.9,44.8L148.1,44.8L146.3,44.8C145.3,44.8 145.4,44.2 145.4,44.2L145.4,30.5L145.4,26.3ZM189.5,26.3C189.5,25.8 190.2,25.8 190.2,25.8L194.2,25.8C194.2,25.8 194.9,25.7 194.9,26.3L194.9,44.2C194.9,44.2 194.9,44.8 194,44.8L192.2,44.8L190.4,44.8C189.4,44.8 189.5,44.2 189.5,44.2L189.5,30.5L189.5,26.3ZM247.3,40L247.3,15L96.2,15L96.2,56.2L202.2,44.7C200.2,44.2 196.6,42.1 196.6,35.2C196.6,25 203.1,25.2 203.7,25.2L204.1,25.2C204.8,25.2 211.2,25 211.2,35.2C211.2,40.8 209.2,43.1 207.4,44.2L212.8,43.6L212.8,30.5L212.8,26.3C212.8,25.8 213.5,25.8 213.5,25.8L217.5,25.8C217.5,25.8 218.2,25.7 218.2,26.3L218.2,27.7C218.6,27.7 219,27.5 219.1,27.4C219.4,27.1 220.7,25.3 222.5,25.3C226.3,25.3 225.9,30.4 225.9,30.4L225.9,42.2L247.3,40Z" style="fill-rule:nonzero;"/>
        <path d="M85.8,52.2C85.8,61.6 82.1,70.2 76.1,76.5L55,52.2L76.1,27.9C82.1,34.2 85.8,42.8 85.8,52.2M50.5,16.9C59.4,16.9 67.4,20.2 73.6,25.5L69.2,25.5L31.8,25.5L27.4,25.5C33.5,20.1 41.6,16.9 50.5,16.9M24.8,27.9L46,52.2L24.8,76.5C18.8,70.2 15.1,61.6 15.1,52.2C15.1,42.8 18.8,34.2 24.8,27.9M50.5,47L37.4,31.9L63.6,31.9L50.5,47ZM50.5,57.4L63.6,72.5L37.4,72.5L50.5,57.4ZM50.5,87.5C41.7,87.5 33.6,84.2 27.4,78.9L73.7,78.9C67.4,84.3 59.3,87.5 50.5,87.5M92.2,52.2C92.2,29.1 73.5,10.4 50.4,10.4C27.3,10.4 8.7,29.1 8.7,52.2C8.7,75.3 27.4,94 50.5,94C73.5,94 92.2,75.3 92.2,52.2" style="fill-rule:nonzero;"/>
    </g>
</svg>
